<?xml version="1.0" encoding="UTF-8" standalone="no"?>
<svg
   version="1.1"
   width="180.84001"
   height="252.90216"
   viewBox="0 0 180.84001 252.90216"
   xml:space="preserve"
   id="svg1803"
   sodipodi:docname="arrow.svg"
   inkscape:export-filename="arrow2.svg"
   inkscape:export-xdpi="96"
   inkscape:export-ydpi="96"
   xmlns:inkscape="http://www.inkscape.org/namespaces/inkscape"
   xmlns:sodipodi="http://sodipodi.sourceforge.net/DTD/sodipodi-0.dtd"
   xmlns="http://www.w3.org/2000/svg"
   xmlns:svg="http://www.w3.org/2000/svg"><sodipodi:namedview
   id="namedview1805"
   pagecolor="#ffffff"
   bordercolor="#666666"
   borderopacity="1.0"
   inkscape:showpageshadow="2"
   inkscape:pageopacity="0.0"
   inkscape:pagecheckerboard="0"
   inkscape:deskcolor="#d1d1d1"
   showgrid="false" />

<defs
   id="defs1791" />

<path
   style="fill:#e76f51;fill-opacity:1;stroke-width:0.311057"
   d="m 88.980092,234.57089 c -0.27145,-0.20841 -0.65638,-0.68467 -0.85541,-1.05836 -0.27068,-0.50823 -0.36186,-12.95685 -0.36186,-49.40424 v -48.72482 l 0.90924,-0.90924 c 0.54814,-0.54814 1.23709,-0.90925 1.73474,-0.90925 0.49765,0 1.18661,0.36111 1.73474,0.90925 l 0.90925,0.90924 v 48.83603 48.83603 l -0.8053,0.95703 c -0.86999,1.03394 -2.32247,1.28228 -3.2654,0.55833 z"
   id="path2839" /><path
   style="fill:#e76f51;fill-opacity:1;stroke-width:0.311057"
   d="m 66.192972,252.34757 c -1.34755,-0.78331 -1.44838,-1.77652 -1.44838,-14.2674 0,-9.35082 0.0901,-12.05568 0.42832,-12.86527 0.97927,-2.34373 4.15704,-2.12612 4.83948,0.3314 0.4368,1.57294 0.44235,23.47485 0.006,25.04475 -0.50805,1.8293 -2.29173,2.64824 -3.82577,1.75652 z"
   id="path2841" /><path
   style="fill:#e76f51;fill-opacity:1;stroke-width:0.311057"
   d="m 111.80932,219.28839 -0.87275,-0.75046 -0.0878,-12.59451 -0.0878,-12.59452 0.82963,-0.65259 c 1.05359,-0.82876 2.30048,-0.8317 3.34777,-0.008 l 0.8196,0.64469 v 12.54759 12.54758 l -0.95704,0.8053 c -1.19018,1.00147 -1.87608,1.01404 -2.9916,0.0548 z"
   id="path2845" /><path
   style="fill:#e76f51;fill-opacity:1;stroke-width:0.311057"
   d="m 66.766462,203.56693 c -0.34216,-0.13845 -0.8662,-0.52326 -1.16453,-0.85514 -0.51028,-0.56768 -0.54635,-3.4487 -0.60895,-48.63939 -0.0366,-26.41978 -0.11382,-50.53676 -0.17162,-53.59328 l -0.10509,-5.557306 -13.771763,13.685546 c -7.574471,7.52706 -14.238832,13.92709 -14.809693,14.22229 -0.759695,0.39285 -1.557815,0.50362 -2.977349,0.41324 -1.699472,-0.10822 -2.126411,-0.27408 -3.450754,-1.34063 -0.831232,-0.66943 -7.48683,-7.17344 -14.790217,-14.45336 C 1.0842472,93.661093 0.36943415,92.819811 0.36943415,90.328051 c 0,-0.598785 0.277538,-1.70036 0.616752,-2.447945 C 1.4556482,86.845471 11.278251,76.84626 42.116659,46.010121 64.399202,23.729212 83.871052,4.4301864 85.387442,3.1233963 c 4.47245,-3.85426561 5.56622,-3.8526013 10.05813,0.015304 1.50571,1.2965436 20.968828,20.5879217 43.251358,42.8697287 30.83762,30.836609 40.66102,40.83702 41.13048,41.871649 0.76291,1.681357 0.79639,3.401562 0.0952,4.88942 -0.73218,1.553537 -28.48597,29.322712 -29.99535,30.011972 -1.30364,0.59531 -4.02883,0.68494 -5.02812,0.16537 -0.99757,-0.51868 -3.13847,-2.5641 -16.47776,-15.74298 -6.63611,-6.5563 -12.20015,-11.837424 -12.36452,-11.735833 -0.18849,0.116491 -0.29887,14.241083 -0.29887,38.243193 v 38.05849 l -0.95704,0.80529 c -1.20475,1.01373 -1.85809,1.01373 -3.06284,0 l -0.95704,-0.80529 V 129.6717 87.57369 l 0.81959,-0.644691 c 1.14278,-0.898911 2.07687,-0.806082 3.44662,0.342527 0.64751,0.542969 6.14643,5.903948 12.21982,11.913288 15.21904,15.058526 19.49362,19.138376 20.05188,19.138376 1.00797,0 28.16197,-26.95995 28.16197,-27.960724 0,-1.087203 -83.972428,-84.9530052 -85.061018,-84.9530052 -1.03147,0 -84.5275848,83.3305472 -85.0161628,84.8475762 -0.275519,0.855487 26.9591578,28.066153 28.0909168,28.066153 0.562211,0 4.726681,-3.98664 20.848105,-19.957831 7.321355,-7.25313 12.149501,-11.806428 12.653131,-11.932829 1.17432,-0.294736 2.04347,0.07765 2.5735,1.102604 0.40524,0.78365 0.46317,8.010797 0.46317,57.780356 v 56.88467 l -0.69988,0.64059 c -0.8752,0.80105 -1.76142,1.05183 -2.56622,0.72618 z"
   id="path2849" /></svg>
