<?xml version="1.0" encoding="UTF-8" standalone="no"?>
<svg
   viewBox="0 0 24 24"
   version="1.1"
   id="svg1793"
   sodipodi:docname="logo_white.svg"
   inkscape:version="1.2.1 (2ed6d7ae0b, 2022-08-22, custom)"
   xmlns:inkscape="http://www.inkscape.org/namespaces/inkscape"
   xmlns:sodipodi="http://sodipodi.sourceforge.net/DTD/sodipodi-0.dtd"
   xmlns="http://www.w3.org/2000/svg"
   xmlns:svg="http://www.w3.org/2000/svg">
  <defs
     id="defs1797" />
  <sodipodi:namedview
     id="namedview1795"
     pagecolor="#ffffff"
     bordercolor="#666666"
     borderopacity="1.0"
     inkscape:showpageshadow="2"
     inkscape:pageopacity="0.0"
     inkscape:pagecheckerboard="0"
     inkscape:deskcolor="#d1d1d1"
     showgrid="false"
     inkscape:lockguides="true"
     inkscape:zoom="34.291667"
     inkscape:cx="11.358445"
     inkscape:cy="12.029161"
     inkscape:window-width="1920"
     inkscape:window-height="948"
     inkscape:window-x="0"
     inkscape:window-y="27"
     inkscape:window-maximized="1"
     inkscape:current-layer="svg1793" />
  <path
     d="M15.5,12C18,12 20,14 20,16.5C20,17.38 19.75,18.21 19.31,18.9L22.39,22L21,23.39L17.88,20.32C17.19,20.75 16.37,21 15.5,21C13,21 11,19 11,16.5C11,14 13,12 15.5,12M15.5,14A2.5,2.5 0 0,0 13,16.5A2.5,2.5 0 0,0 15.5,19A2.5,2.5 0 0,0 18,16.5A2.5,2.5 0 0,0 15.5,14M5,3H19C20.11,3 21,3.89 21,5V13.03C20.5,12.23 19.81,11.54 19,11V5H5V19H9.5C9.81,19.75 10.26,20.42 10.81,21H5C3.89,21 3,20.11 3,19V5C3,3.89 3.89,3 5,3M7,7H17V9H7V7M7,11H12.03C11.23,11.5 10.54,12.19 10,13H7V11M7,15H9.17C9.06,15.5 9,16 9,16.5V17H7V15Z"
     id="path1791"
     style="fill:#000000" />
  <path
     style="fill:#ef4135;stroke-width:0.0291616;fill-opacity:1"
     d="m 20.820389,23.195725 c -0.08767,-0.0895 -0.785113,-0.779165 -1.549883,-1.532598 l -1.39049,-1.369877 -0.125913,0.07964 c -0.06925,0.0438 -0.230895,0.128044 -0.359206,0.187206 -1.493243,0.688517 -3.183497,0.528278 -4.527151,-0.429181 -0.343905,-0.24506 -0.846149,-0.762975 -1.082399,-1.116172 -0.360675,-0.539215 -0.596667,-1.136135 -0.70862,-1.79239 -0.07795,-0.456924 -0.06451,-1.188746 0.02991,-1.62865 0.389177,-1.813191 1.781906,-3.169077 3.60539,-3.510015 0.393605,-0.07359 1.199297,-0.07418 1.574727,-0.0011 1.836865,0.357338 3.205046,1.683876 3.603836,3.494147 0.09456,0.429262 0.109199,1.191661 0.03159,1.64566 -0.094,0.549873 -0.306987,1.142252 -0.562961,1.565748 l -0.06654,0.110091 0.392543,0.399728 c 0.215899,0.21985 0.907418,0.918305 1.53671,1.552121 l 1.144166,1.152392 -0.677348,0.678007 c -0.372541,0.372904 -0.684462,0.678008 -0.693158,0.678008 -0.0087,0 -0.08754,-0.07322 -0.175202,-0.16272 z M 16.193098,18.91343 c 0.883185,-0.259929 1.507606,-0.903829 1.745865,-1.800333 0.08898,-0.334813 0.08818,-0.896464 -0.0018,-1.234604 -0.127621,-0.479771 -0.372154,-0.884915 -0.740924,-1.227567 -0.511549,-0.475321 -1.069034,-0.674237 -1.811149,-0.646238 -0.323474,0.0122 -0.423596,0.02817 -0.65851,0.105011 -0.821294,0.268648 -1.44205,0.928191 -1.664773,1.768794 -0.08824,0.333025 -0.08985,0.868229 -0.0037,1.216309 0.244546,0.987631 1.01735,1.704447 2.037612,1.889992 0.262966,0.04782 0.814129,0.01198 1.097309,-0.07136 z"
     id="path2331" />
  <path
     style="fill:#ffffff;stroke-width:0.0291616;fill-opacity:1"
     d="M 4.7252217,20.963905 C 4.2845497,20.899709 3.9359572,20.720173 3.6007942,20.384789 3.3166117,20.100419 3.1719655,19.847565 3.076339,19.467996 3.0190718,19.240686 3.018226,19.131997 3.018226,12 c 0,-7.1319969 8.458e-4,-7.2406862 0.058113,-7.4679963 C 3.1716682,4.1536153 3.3166668,3.8997373 3.6007942,3.6137355 3.8003568,3.4128565 3.8981758,3.3396197 4.0972053,3.242074 4.5990856,2.9960991 3.8179133,3.018226 12,3.018226 c 8.179769,0 7.399249,-0.02202 7.902794,0.2229529 0.201022,0.097796 0.294798,0.1680465 0.496126,0.3716615 0.283972,0.287199 0.429945,0.5428921 0.524741,0.9191633 0.05667,0.2249481 0.05811,0.3322123 0.05811,4.3262726 V 12.953881 L 20.817859,12.724814 C 20.420703,12.169799 19.932324,11.671602 19.359105,11.236735 L 19.027946,10.985506 V 7.9860699 4.9866342 H 12 4.9720534 V 12 19.013366 H 7.2274013 9.482749 l 0.1819815,0.37141 c 0.2613443,0.533383 0.6310305,1.081062 1.0041675,1.487642 l 0.113743,0.123937 -2.941746,-0.0036 c -1.6179601,-0.002 -3.0200131,-0.01496 -3.1156733,-0.02889 z"
     id="path949" />
  <path
     style="fill:#ffffff;fill-opacity:1;stroke-width:0.0291616"
     d="M 7.0133657,8.0048602 V 7.0279465 H 12 16.986634 V 8.0048602 8.9817739 H 12 7.0133657 Z"
     id="path1158" />
  <path
     style="fill:#ffffff;fill-opacity:1;stroke-width:0.0291616"
     d="m 7.0133657,12 v -0.976914 h 2.4672202 2.4672201 l -0.229067,0.163915 c -0.611389,0.437496 -1.269645,1.10579 -1.626075,1.650871 l -0.09023,0.137994 -1.4945321,5.24e-4 -1.4945322,5.24e-4 z"
     id="path1160" />
  <path
     style="fill:#ffffff;fill-opacity:1;stroke-width:0.0291616"
     d="m 7.0133657,15.99514 v -0.976914 h 1.0643985 c 0.5854192,0 1.0639861,0.0098 1.063482,0.02187 -5.043e-4,0.01203 -0.027569,0.166221 -0.060144,0.342649 -0.042168,0.228381 -0.064,0.503472 -0.075794,0.955042 l -0.016566,0.634265 H 8.0010537 7.0133657 Z"
     id="path1162" />
</svg>
