<?xml version="1.0" encoding="UTF-8" standalone="no"?>
<svg
   viewBox="0 0 24 24"
   version="1.1"
   id="svg1793"
   sodipodi:docname="text-box-search-outline.svg"
   inkscape:version="1.2.1 (2ed6d7ae0b, 2022-08-22, custom)"
   xmlns:inkscape="http://www.inkscape.org/namespaces/inkscape"
   xmlns:sodipodi="http://sodipodi.sourceforge.net/DTD/sodipodi-0.dtd"
   xmlns="http://www.w3.org/2000/svg"
   xmlns:svg="http://www.w3.org/2000/svg">
  <defs
     id="defs1797" />
  <sodipodi:namedview
     id="namedview1795"
     pagecolor="#ffffff"
     bordercolor="#666666"
     borderopacity="1.0"
     inkscape:showpageshadow="2"
     inkscape:pageopacity="0.0"
     inkscape:pagecheckerboard="0"
     inkscape:deskcolor="#d1d1d1"
     showgrid="false"
     inkscape:lockguides="true"
     inkscape:zoom="34.291667"
     inkscape:cx="11.343864"
     inkscape:cy="12"
     inkscape:window-width="1920"
     inkscape:window-height="1068"
     inkscape:window-x="1920"
     inkscape:window-y="27"
     inkscape:window-maximized="1"
     inkscape:current-layer="svg1793" />
  <path
     d="M15.5,12C18,12 20,14 20,16.5C20,17.38 19.75,18.21 19.31,18.9L22.39,22L21,23.39L17.88,20.32C17.19,20.75 16.37,21 15.5,21C13,21 11,19 11,16.5C11,14 13,12 15.5,12M15.5,14A2.5,2.5 0 0,0 13,16.5A2.5,2.5 0 0,0 15.5,19A2.5,2.5 0 0,0 18,16.5A2.5,2.5 0 0,0 15.5,14M5,3H19C20.11,3 21,3.89 21,5V13.03C20.5,12.23 19.81,11.54 19,11V5H5V19H9.5C9.81,19.75 10.26,20.42 10.81,21H5C3.89,21 3,20.11 3,19V5C3,3.89 3.89,3 5,3M7,7H17V9H7V7M7,11H12.03C11.23,11.5 10.54,12.19 10,13H7V11M7,15H9.17C9.06,15.5 9,16 9,16.5V17H7V15Z"
     id="path1791"
     style="fill:#000000" />
  <path
     style="fill:#ef4135;stroke-width:0.0291616;fill-opacity:1"
     d="m 20.820389,23.195725 c -0.08767,-0.0895 -0.785113,-0.779165 -1.549883,-1.532598 l -1.39049,-1.369877 -0.125913,0.07964 c -0.06925,0.0438 -0.230895,0.128044 -0.359206,0.187206 -1.493243,0.688517 -3.183497,0.528278 -4.527151,-0.429181 -0.343905,-0.24506 -0.846149,-0.762975 -1.082399,-1.116172 -0.360675,-0.539215 -0.596667,-1.136135 -0.70862,-1.79239 -0.07795,-0.456924 -0.06451,-1.188746 0.02991,-1.62865 0.389177,-1.813191 1.781906,-3.169077 3.60539,-3.510015 0.393605,-0.07359 1.199297,-0.07418 1.574727,-0.0011 1.836865,0.357338 3.205046,1.683876 3.603836,3.494147 0.09456,0.429262 0.109199,1.191661 0.03159,1.64566 -0.094,0.549873 -0.306987,1.142252 -0.562961,1.565748 l -0.06654,0.110091 0.392543,0.399728 c 0.215899,0.21985 0.907418,0.918305 1.53671,1.552121 l 1.144166,1.152392 -0.677348,0.678007 c -0.372541,0.372904 -0.684462,0.678008 -0.693158,0.678008 -0.0087,0 -0.08754,-0.07322 -0.175202,-0.16272 z M 16.193098,18.91343 c 0.883185,-0.259929 1.507606,-0.903829 1.745865,-1.800333 0.08898,-0.334813 0.08818,-0.896464 -0.0018,-1.234604 -0.127621,-0.479771 -0.372154,-0.884915 -0.740924,-1.227567 -0.511549,-0.475321 -1.069034,-0.674237 -1.811149,-0.646238 -0.323474,0.0122 -0.423596,0.02817 -0.65851,0.105011 -0.821294,0.268648 -1.44205,0.928191 -1.664773,1.768794 -0.08824,0.333025 -0.08985,0.868229 -0.0037,1.216309 0.244546,0.987631 1.01735,1.704447 2.037612,1.889992 0.262966,0.04782 0.814129,0.01198 1.097309,-0.07136 z"
     id="path2331" />
</svg>
